HIERARCHY
ROOT Hips
{
	OFFSET 0.00000 0.00000 0.00000
	CHANNELS 6 Xposition Yposition Zposition Zrotation Yrotation Xrotation 
	JOINT LHipJoint
	{
		OFFSET 0 0 0
		CHANNELS 3 Zrotation Yrotation Xrotation
		JOINT LeftHip
		{
			OFFSET 1.52977 -1.71332 0.88991
			CHANNELS 3 Zrotation Yrotation Xrotation
			JOINT LeftKnee
			{
				OFFSET 2.23949 -6.15296 0.00000
				CHANNELS 3 Zrotation Yrotation Xrotation
				JOINT LeftAnkle
				{
					OFFSET 2.68396 -7.37412 0.00000
					CHANNELS 3 Zrotation Yrotation Xrotation
					JOINT LeftToe
					{
						OFFSET 0.20538 -0.56428 2.52710
						CHANNELS 3 Zrotation Yrotation Xrotation
						End Site
						{
							OFFSET 0.00000 -0.00000 1.29919
						}
					}
				}
			}
		}
	}
	JOINT RHipJoint
	{
		OFFSET 0 0 0
		CHANNELS 3 Zrotation Yrotation Xrotation
		JOINT RightHip
		{
			OFFSET -1.45689 -1.71333 0.88991
			CHANNELS 3 Zrotation Yrotation Xrotation
			JOINT RightKnee
			{
				OFFSET -2.36700 -6.50329 0.00000
				CHANNELS 3 Zrotation Yrotation Xrotation
				JOINT RightAnkle
				{
					OFFSET -2.69814 -7.41308 0.00000
					CHANNELS 3 Zrotation Yrotation Xrotation
					JOINT RightToe
					{
						OFFSET -0.18734 -0.51471 2.37479
						CHANNELS 3 Zrotation Yrotation Xrotation
						End Site
						{
							OFFSET -0.00000 -0.00000 1.22113
						}
					}
				}
			}
		}
	}
	JOINT lowerback
	{
		OFFSET 0 0 0
		CHANNELS 3 Zrotation Yrotation Xrotation
		JOINT Chest
		{
			OFFSET 0.04294 2.14638 -0.31163
			CHANNELS 3 Zrotation Yrotation Xrotation
			JOINT Chest2
			{
				OFFSET -0.00400 2.17216 0.01486
				CHANNELS 3 Zrotation Yrotation Xrotation
				JOINT lowerneck
				{
					OFFSET 0 0 0
					CHANNELS 3 Zrotation Yrotation Xrotation
					JOINT Neck
					{
						OFFSET 0.03869 1.76598 0.14916
						CHANNELS 3 Zrotation Yrotation Xrotation
						JOINT Head
						{
							OFFSET -0.00760 1.75513 -0.18948
							CHANNELS 3 Zrotation Yrotation Xrotation
							End Site
							{
								OFFSET -0.00601 1.82444 -0.08310
							}
						}
					}
				}
				JOINT LeftCollar
				{
					OFFSET 0 0 0
					CHANNELS 3 Zrotation Yrotation Xrotation
					JOINT LeftShoulder
					{
						OFFSET 3.73696 0.92058 0.01733
CHANNELS 3 Zrotation Xrotation Yrotation
						JOINT LeftElbow
						{
OFFSET 0 -5.227710 0.000000
CHANNELS 3 Zrotation Xrotation Yrotation
							JOINT LeftWrist
							{
OFFSET 0 -3.452510 0.000000
CHANNELS 3 Zrotation Xrotation Yrotation
								JOINT lhand
								{
									OFFSET 0 0 0
CHANNELS 3 Zrotation Xrotation Yrotation
									JOINT LFingers
									{
OFFSET 0 -0.552120 0.000000
CHANNELS 3 Zrotation Xrotation Yrotation
										End Site
										{
OFFSET 0 -0.445130 0.000000
										}
									}
								}
								JOINT LThumb
								{
OFFSET 0 0.000000 0.000000
CHANNELS 3 Zrotation Xrotation Yrotation
									End Site
									{
OFFSET 0 -0.451930 0.451930
									}
								}
							}
						}
					}
				}
				JOINT RightCollar
				{
					OFFSET 0 0 0
					CHANNELS 3 Zrotation Yrotation Xrotation
					JOINT RightShoulder
					{
						OFFSET -3.63819 0.83094 -0.13694
CHANNELS 3 Zrotation Xrotation Yrotation
						JOINT RightElbow
						{
OFFSET 0 -5.239800 -0.000000
CHANNELS 3 Zrotation Xrotation Yrotation
							JOINT RightWrist
							{
OFFSET 0 -3.480420 -0.000000
CHANNELS 3 Zrotation Xrotation Yrotation
								JOINT rhand
								{
									OFFSET 0 0 0
CHANNELS 3 Zrotation Xrotation Yrotation
									JOINT RFingers
									{
OFFSET 0 -0.618710 0.000000
CHANNELS 3 Zrotation Xrotation Yrotation
										End Site
										{
OFFSET 0 -0.498820 0.000000
										}
									}
								}
								JOINT RThumb
								{
OFFSET 0 0.000000 0.000000
CHANNELS 3 Zrotation Xrotation Yrotation
									End Site
									{
OFFSET 0 -0.506440 0.506440
									}
								}
							}
						}
					}
				}
			}
		}
	}
}
MOTION
Frames: 13
Frame Time: 0.008333333333333333
2.181707 17.943355 -4.968675 -11.373146 87.280463 -11.882725 0.000000 0.000000 0.000000 -21.591099 14.550249 5.647305 0.317835 3.618502 10.006440 0.334692 -0.464632 11.104765 3.028183 -10.740503 -31.409676 0.000000 0.000000 0.000000 18.277266 10.820744 -25.416608 -3.840239 -11.942055 35.530909 0.228851 -8.598697 -1.436224 -0.000829 0.093074 -0.255776 -0.436650 -1.264696 5.934614 -1.219583 -1.730007 0.635538 -0.869247 -0.854914 -2.696239 1.786731 1.154715 -6.217532 1.688225 1.252993 12.224896 0.304376 0.839338 4.688348 0.000000 0.000000 0.000000 2.936375 2.967151 -4.849078 7.162253 -12.185915 0.765566 18.554479 -0.546848 -11.167732 0.000000 0.000000 0.000000 -7.125000 0.000000 0.000000 -7.646096 41.620829 -0.641528 0.000000 0.000000 0.000000 0.399447 7.317836 26.949654 -17.045963 -26.918328 -4.108165 -25.589908 12.174014 31.571065 0.000000 0.000000 0.000000 7.125000 0.000000 0.000000 7.785570 64.086583 -3.611077
1.974810 17.953910 -4.982516 -11.520695 87.197488 -12.010127 0.000000 0.000000 0.000000 -21.877287 13.889028 3.797525 0.457104 4.333513 12.017402 0.292709 -0.220501 10.300368 3.028832 -10.741589 -31.413217 0.000000 0.000000 0.000000 18.299587 10.834993 -25.455030 -4.463768 -12.750262 38.445296 0.220921 -8.429891 -1.517463 -0.017016 0.820935 -2.256255 -0.359400 -1.252985 5.903864 -1.222398 -1.710573 0.589122 -0.917151 -0.846497 -2.728977 1.776902 1.176277 -6.197181 1.611071 1.293889 12.338399 0.285123 0.856434 4.720131 0.000000 0.000000 0.000000 2.950497 3.324287 -3.915739 6.961477 -11.855756 0.723768 18.541332 0.155927 -11.214031 0.000000 0.000000 0.000000 -7.125000 0.000000 0.000000 -7.666133 41.667592 -0.634327 0.000000 0.000000 0.000000 0.403416 7.485813 26.977338 -17.014235 -26.876529 -4.093782 -25.492948 12.173124 31.630807 0.000000 0.000000 0.000000 7.125000 0.000000 0.000000 7.944156 64.120807 -3.691471
1.774038 17.956014 -4.992188 -11.135935 87.180432 -11.634617 0.000000 0.000000 0.000000 -22.130263 13.321875 2.067388 0.607752 4.987294 13.872845 0.257478 -0.087157 9.614847 3.031099 -10.745227 -31.425366 0.000000 0.000000 0.000000 18.290802 10.844865 -25.283378 -5.163148 -13.562393 41.517294 0.207024 -8.166587 -1.445032 -0.046720 1.392487 -3.829555 -0.343034 -1.254702 5.835894 -1.229945 -1.712288 0.558097 -0.935079 -0.847873 -2.723606 1.770898 1.193617 -6.150017 1.533997 1.329563 12.400698 0.264524 0.870074 4.731745 0.000000 0.000000 0.000000 2.972693 3.657844 -3.008116 6.761151 -11.525447 0.683119 18.540281 0.811192 -11.256612 0.000000 0.000000 0.000000 -7.125000 0.000000 0.000000 -7.674878 41.711655 -0.626655 0.000000 0.000000 0.000000 0.391239 7.633987 27.020049 -17.007442 -26.867584 -4.090714 -25.521115 12.193053 31.734474 0.000000 0.000000 0.000000 7.125000 0.000000 0.000000 7.979931 64.233892 -3.729193
1.580055 17.951778 -5.000883 -11.728636 87.234756 -12.294588 0.000000 0.000000 0.000000 -22.273885 12.850395 0.503083 0.764113 5.580288 15.571762 0.227471 -0.105540 9.045951 3.014531 -10.718626 -31.336594 0.000000 0.000000 0.000000 18.317037 10.772275 -24.843385 -5.907577 -14.335611 44.604834 0.183230 -7.747969 -1.051688 -0.077113 1.787966 -4.920123 -0.266340 -1.272850 5.745069 -1.234640 -1.731191 0.557343 -0.983402 -0.858406 -2.676320 1.766261 1.199540 -6.109009 1.465996 1.348503 12.461044 0.245473 0.876161 4.743766 0.000000 0.000000 0.000000 3.003171 3.918854 -1.970507 6.548305 -11.173455 0.641265 18.477621 1.578397 -11.277331 0.000000 0.000000 0.000000 -7.125000 0.000000 0.000000 -7.733993 41.727287 -0.628585 0.000000 0.000000 0.000000 0.371291 7.741070 27.016365 -16.999616 -26.857334 -4.087198 -25.592343 12.258471 31.865386 0.000000 0.000000 0.000000 7.125000 0.000000 0.000000 7.982004 64.386473 -3.758572
1.390884 17.945760 -5.008217 -13.903780 87.395171 -14.574284 0.000000 0.000000 0.000000 -22.293010 12.458041 -0.901551 0.917831 6.102836 17.083380 0.202630 -0.321089 8.624221 2.976709 -10.657166 -31.132224 0.000000 0.000000 0.000000 18.384709 10.585614 -24.158391 -6.666509 -15.042388 47.597714 0.148703 -7.190274 -0.205348 -0.107395 2.112072 -5.815571 -0.130162 -1.317690 5.657944 -1.225352 -1.781626 0.566189 -1.048239 -0.885148 -2.623126 1.766626 1.194092 -6.083154 1.405683 1.350199 12.544216 0.227222 0.874958 4.765342 0.000000 0.000000 0.000000 3.029174 4.107687 -0.717594 6.325053 -10.803141 0.598719 18.355912 2.554751 -11.221186 0.000000 0.000000 0.000000 -7.125000 0.000000 0.000000 -7.830946 41.657364 -0.650095 0.000000 0.000000 0.000000 0.337582 7.825143 26.939939 -16.976867 -26.827243 -4.076894 -25.636577 12.359636 31.963947 0.000000 0.000000 0.000000 7.125000 0.000000 0.000000 7.995542 64.498768 -3.785846
1.203801 17.937990 -5.012175 -18.098529 87.668518 -18.887142 0.000000 0.000000 0.000000 -22.208124 12.112181 -2.175671 1.063508 6.555601 18.405630 0.182202 -0.705874 8.351784 2.914991 -10.556047 -30.796817 0.000000 0.000000 0.000000 18.510466 10.262144 -23.233916 -7.410745 -15.666664 50.408587 0.111760 -6.684466 0.864385 -0.119462 2.227893 -6.135889 0.020737 -1.389375 5.582544 -1.197407 -1.866923 0.574866 -1.099291 -0.929419 -2.577459 1.765462 1.176664 -6.071490 1.363548 1.333441 12.633775 0.213880 0.865855 4.791130 0.000000 0.000000 0.000000 3.042254 4.247585 0.609341 6.120536 -10.463061 0.560991 18.334259 3.659838 -11.153399 0.000000 0.000000 0.000000 -7.125000 0.000000 0.000000 -7.837433 41.585019 -0.664724 0.000000 0.000000 0.000000 0.292384 7.900540 26.796592 -16.944932 -26.785178 -4.062524 -25.636862 12.457801 31.976041 0.000000 0.000000 0.000000 7.125000 0.000000 0.000000 8.003661 64.511173 -3.791986
1.019214 17.930459 -5.012705 -24.478486 87.973173 -25.378898 0.000000 0.000000 0.000000 -22.069714 11.822697 -3.327522 1.191564 6.926201 19.497183 0.165397 -1.186392 8.212893 2.842330 -10.435258 -30.398120 0.000000 0.000000 0.000000 18.706496 9.834558 -22.079489 -8.107071 -16.196327 52.945651 0.085623 -6.616820 1.961715 -0.107182 2.110158 -5.810208 0.169375 -1.460345 5.484528 -1.160747 -1.951459 0.585993 -1.140962 -0.973085 -2.516548 1.766394 1.145789 -6.069932 1.344275 1.294902 12.706997 0.205953 0.847387 4.813503 0.000000 0.000000 0.000000 3.053082 4.375019 1.736826 5.967947 -10.208693 0.533613 18.521937 4.679565 -11.175727 0.000000 0.000000 0.000000 -7.125000 0.000000 0.000000 -7.676220 41.625966 -0.643110 0.000000 0.000000 0.000000 0.247806 7.968924 26.610069 -16.916535 -26.747678 -4.049707 -25.641477 12.537911 31.969196 0.000000 0.000000 0.000000 7.125000 0.000000 0.000000 7.993221 64.505628 -3.786010
0.838642 17.926128 -5.011470 -32.635428 88.238245 -33.625058 0.000000 0.000000 0.000000 -21.939640 11.580373 -4.316677 1.287037 7.188623 20.275467 0.153237 -1.661730 8.200074 2.776399 -10.323955 -30.032258 0.000000 0.000000 0.000000 18.949858 9.340587 -20.702115 -8.719583 -16.623135 55.114157 0.072895 -7.110047 3.008664 -0.081337 1.838129 -5.058485 0.312314 -1.508348 5.326713 -1.128023 -2.006234 0.596756 -1.187594 -1.001782 -2.422138 1.780255 1.101963 -6.064271 1.333526 1.236665 12.761034 0.197173 0.820020 4.829165 0.000000 0.000000 0.000000 3.067082 4.520419 2.479578 5.880405 -10.062565 0.518150 18.810309 5.368716 -11.263118 0.000000 0.000000 0.000000 -7.125000 0.000000 0.000000 -7.437729 41.744369 -0.601068 0.000000 0.000000 0.000000 0.206670 8.028131 26.410609 -16.888366 -26.710403 -4.037048 -25.671389 12.597669 32.000340 0.000000 0.000000 0.000000 7.125000 0.000000 0.000000 7.977920 64.545460 -3.786140
0.662151 17.926892 -5.009238 -41.932075 88.429176 -42.968431 0.000000 0.000000 0.000000 -21.847145 11.383536 -5.146381 1.341404 7.333037 20.705854 0.146560 -2.069286 8.302282 2.723474 -10.233353 -29.735693 0.000000 0.000000 0.000000 19.223610 8.824174 -19.129609 -9.217322 -16.945221 56.838199 0.067964 -8.028623 4.067238 -0.054358 1.502138 -4.131718 0.447167 -1.523893 5.108334 -1.098208 -2.019336 0.585384 -1.237266 -1.009812 -2.315537 1.815063 1.047744 -6.038465 1.314913 1.163931 12.819093 0.181622 0.786294 4.842922 0.000000 0.000000 0.000000 3.078299 4.696176 2.861693 5.843442 -10.000737 0.511686 19.065035 5.661757 -11.372791 0.000000 0.000000 0.000000 -7.125000 0.000000 0.000000 -7.232406 41.883274 -0.559339 0.000000 0.000000 0.000000 0.160051 8.094765 26.212036 -16.856288 -26.667903 -4.022616 -25.687043 12.626604 32.055637 0.000000 0.000000 0.000000 7.125000 0.000000 0.000000 7.997098 64.605956 -3.806480
0.488941 17.931952 -5.006016 -51.839372 88.530437 -52.901725 0.000000 0.000000 0.000000 -21.770761 11.246367 -5.821520 1.356932 7.373595 20.827085 0.144423 -2.406377 8.486501 2.680608 -10.159167 -29.493696 0.000000 0.000000 0.000000 19.549575 8.316505 -17.349399 -9.578294 -17.165677 58.069108 0.065501 -9.248317 5.217362 -0.028712 1.088541 -2.992623 0.584334 -1.511774 4.865826 -1.061563 -1.996461 0.553317 -1.284139 -0.999988 -2.215625 1.841082 0.989904 -6.008118 1.313091 1.085785 12.909814 0.172439 0.751345 4.865770 0.000000 0.000000 0.000000 3.078641 4.887009 3.044052 5.832762 -9.982893 0.509877 19.194818 5.642537 -11.429068 0.000000 0.000000 0.000000 -7.125000 0.000000 0.000000 -7.127773 41.954628 -0.538540 0.000000 0.000000 0.000000 0.096938 8.155791 26.031764 -16.804498 -26.599326 -3.999437 -25.675043 12.651266 32.092121 0.000000 0.000000 0.000000 7.125000 0.000000 0.000000 8.037362 64.639560 -3.832127
0.316464 17.940070 -5.001835 -61.652040 88.553564 -62.704840 0.000000 0.000000 0.000000 -21.698057 11.148819 -6.404071 1.342009 7.334479 20.710180 0.145503 -2.711005 8.735321 2.637611 -10.083913 -29.248857 0.000000 0.000000 0.000000 19.926156 7.828804 -15.420252 -9.790074 -17.290106 58.784442 0.061874 -10.652064 6.453704 -0.008048 0.569496 -1.564961 0.727329 -1.483581 4.606745 -1.012467 -1.952723 0.500613 -1.322739 -0.979893 -2.126597 1.856411 0.933504 -6.005994 1.318361 1.009164 13.047443 0.167725 0.717947 4.907713 0.000000 0.000000 0.000000 3.061392 5.068990 3.159194 5.832720 -9.982920 0.509900 19.244642 5.464074 -11.405048 0.000000 0.000000 0.000000 -7.125000 0.000000 0.000000 -7.079307 41.934367 -0.538350 0.000000 0.000000 0.000000 0.016855 8.180312 25.858695 -16.722540 -26.490527 -3.962816 -25.627347 12.728848 32.089498 0.000000 0.000000 0.000000 7.125000 0.000000 0.000000 8.094255 64.623697 -3.856408
0.143104 17.949551 -4.997201 -69.923957 88.523983 -70.929699 0.000000 0.000000 0.000000 -21.640443 11.024537 -6.919492 1.306884 7.241786 20.433784 0.149134 -2.972353 9.017709 2.584244 -9.989486 -28.942797 0.000000 0.000000 0.000000 20.318245 7.361815 -13.391222 -9.848459 -17.323726 58.980718 0.051677 -12.014229 7.688128 -0.000496 0.132287 -0.363565 0.875998 -1.441777 4.331262 -0.960047 -1.891746 0.431293 -1.362263 -0.951305 -2.044890 1.897057 0.877356 -6.017654 1.280457 0.935284 13.203873 0.145770 0.684818 4.958210 0.000000 0.000000 0.000000 3.026829 5.225605 3.287621 5.830578 -9.979226 0.509483 19.272250 5.333185 -11.336439 0.000000 0.000000 0.000000 -7.125000 0.000000 0.000000 -7.042568 41.865430 -0.547569 0.000000 0.000000 0.000000 -0.066014 8.155121 25.668105 -16.617290 -26.350444 -3.915959 -25.551003 12.875299 32.048899 0.000000 0.000000 0.000000 7.125000 0.000000 0.000000 8.160029 64.561333 -3.876100
-0.030754 17.958710 -4.992651 -75.590254 88.442871 -76.549510 0.000000 0.000000 0.000000 -21.567012 10.838267 -7.361956 1.264479 7.127708 20.094372 0.154852 -3.186689 9.312657 2.513602 -9.862592 -28.533051 0.000000 0.000000 0.000000 20.728455 6.905849 -11.253437 -9.752860 -17.268445 58.659132 0.024679 -13.185758 8.935889 -0.000331 -0.110050 0.302450 1.050918 -1.382547 4.063677 -0.906015 -1.806998 0.360823 -1.415608 -0.911016 -1.968544 1.949863 0.822033 -6.032892 1.214333 0.864715 13.351345 0.113081 0.651845 5.006618 0.000000 0.000000 0.000000 2.971431 5.370709 3.374958 5.834473 -9.985827 0.510174 19.331439 5.310124 -11.301308 0.000000 0.000000 0.000000 -7.125000 0.000000 0.000000 -6.983972 41.834532 -0.548377 0.000000 0.000000 0.000000 -0.142801 8.098833 25.451815 -16.510986 -26.208648 -3.868850 -25.475818 13.057307 31.950677 0.000000 0.000000 0.000000 7.125000 0.000000 0.000000 8.183910 64.440796 -3.864621
